<svg width="156" height="45" fill="none" xmlns="http://www.w3.org/2000/svg"><path d="M66.394 33.965h4.48L61.946 12.62h-3.264l-9.184 21.344h4.512l1.888-4.48h8.608l1.888 4.48zm-9.184-7.872l3.04-7.68 3.04 7.68h-6.08zm16.38-15.456v23.328h3.904V10.637H73.59zm8.425 0v23.328h3.904V10.637h-3.904zm20.521 5.568V12.62h-13.76v3.584h4.8v17.76h4.16v-17.76h4.8zm2.861 3.904v13.856h3.904V20.109h-3.904zm-.384-5.856a2.35 2.35 0 0 0 2.336 2.336 2.35 2.35 0 0 0 2.336-2.336 2.35 2.35 0 0 0-2.336-2.336 2.35 2.35 0 0 0-2.336 2.336zm8.809 19.712h3.904v-7.072c0-.736.032-1.856.544-2.688.416-.736 1.088-1.216 2.144-1.216.384 0 1.088.064 1.6.704.288.352.64 1.088.64 2.72v7.552h3.904v-7.072c0-.736.032-1.856.544-2.688.416-.736 1.088-1.216 2.144-1.216.384 0 1.088.064 1.6.704.288.352.64 1.088.64 2.72v7.552h3.904V25.26c0-1.536-.064-2.72-.96-3.904-.544-.704-1.6-1.696-3.744-1.696-2.4 0-3.776 1.44-4.448 2.528-.352-.704-1.472-2.528-4.384-2.528-.832 0-2.656.16-4.128 2.016v-1.568h-3.904v13.856zm36.097-4.448c-.64 1.12-1.76 1.824-3.232 1.824-1.504 0-2.368-.736-2.784-1.312-.448-.608-.672-1.504-.672-2.336h10.368v-.32c0-1.504-.192-3.68-1.664-5.44-.96-1.152-2.592-2.272-5.408-2.272-1.664 0-3.584.352-5.216 1.952-.992.992-2.112 2.688-2.112 5.44 0 2.176.64 3.968 2.176 5.408 1.376 1.312 3.072 1.952 5.312 1.952 4.832 0 6.4-3.296 6.816-4.32l-3.584-.576zm-6.56-4.32c.32-1.856 1.824-2.784 3.264-2.784 1.44 0 2.976.896 3.296 2.784h-6.56z" fill="#121212"/><path d="M22.5 26.5L10 17l12 2 16.5-8.5-16 16z" fill="#007FBB"/><path fill-rule="evenodd" clip-rule="evenodd" d="M43 21.5C43 33.374 33.374 43 21.5 43S0 33.374 0 21.5 9.626 0 21.5 0c6.878 0 13.002 3.23 16.938 8.256l-4.726 2.148A16.458 16.458 0 0 0 21.5 5C12.387 5 5 12.387 5 21.5S12.387 38 21.5 38 38 30.613 38 21.5c0-2.071-.382-4.053-1.078-5.88l3.917-3.525A21.414 21.414 0 0 1 43 21.5z" fill="#007FBB"/></svg>